<?xml version="1.0" encoding="utf-8"?>
<!-- Generator: Adobe Illustrator 17.0.0, SVG Export Plug-In . SVG Version: 6.00 Build 0)  -->
<!DOCTYPE svg PUBLIC "-//W3C//DTD SVG 1.1//EN" "http://www.w3.org/Graphics/SVG/1.1/DTD/svg11.dtd">
<svg version="1.1" id="Layer_1" xmlns="http://www.w3.org/2000/svg" xmlns:xlink="http://www.w3.org/1999/xlink" x="0px" y="0px"
	 width="675.01px" height="356.227px" viewBox="112.83 115.47 675.01 356.227"
	 enable-background="new 112.83 115.47 675.01 356.227" xml:space="preserve">
<g id="_x23_000000ff">
	<path d="M532.74,115.48c6.96,0,13.92,0.02,20.88-0.01c-0.04,70.67-0.02,141.34,0,212.01c-6.43-0.01-12.86-0.01-19.29,0
		c0.03-6.45,0.05-12.91,0-19.37c-4.22,8.34-10.72,15.95-19.47,19.68c-12.13,5.11-26.68,3.32-37.54-3.99
		c-11.1-7.19-18.66-18.7-23.27-30.9c-5.03-13.33-6.98-27.69-6.89-41.9c-0.12-15.45,2.01-31.05,7.4-45.58
		c4.06-10.8,10.76-20.93,20.48-27.4c9.54-6.6,21.91-9.05,33.2-6.24c10.58,2.73,19.08,10.74,24.54,19.97
		C532.72,166.33,532.79,140.9,532.74,115.48 M494.27,193.2c-10.54,3.06-17.67,12.8-21.17,22.77c-4.76,14.11-5.06,29.27-4.47,44.02
		c0.9,13.35,3.34,27.55,12.19,38.13c4.88,6.24,12.12,11.13,20.26,11.3c8.22,0.42,16.05-3.88,21.15-10.14
		c8.24-9.36,10.92-22.08,12.03-34.15c0.92-14.05,0.64-28.36-2.63-42.11c-2.34-9.72-7.17-19.19-15.18-25.42
		C510.28,192.77,501.82,191.07,494.27,193.2z"/>
	<path d="M259.01,178.99c13.17-9.11,30.75-11.22,45.79-5.86c9.41,3.35,17.23,10.37,22.4,18.84c5.08,8.22,7.71,17.69,9.27,27.16
		c-6.85,1.14-13.66,2.42-20.5,3.57c-1.89-9.75-5.36-20.05-13.52-26.33c-6.72-5.44-16.27-5.98-24.22-3.25
		c-7.88,2.69-14.05,9.02-17.91,16.25c-3.98,7.63-5.77,16.18-6.7,24.67c-1.38,13.56-1.16,27.33,1.17,40.78
		c1.82,10.23,5.83,20.6,13.92,27.51c9.91,8.84,26.65,9.1,36.35-0.21c8.75-7.98,11.55-20.2,12.87-31.5
		c6.86,1.24,13.73,2.35,20.56,3.69c-2.2,16.64-8.16,33.81-21.26,45.02c-10.25,9.29-24.91,12.59-38.38,10.33
		c-13.05-1.72-24.7-9.65-32.27-20.24c-9.95-13.69-13.58-30.83-14.72-47.43c-0.93-17.33,0.03-35.03,5.3-51.67
		C240.94,197.97,248,186.14,259.01,178.99z"/>
	<path d="M354.73,173.85c16.87-3.52,35.08-6.71,51.73-0.54c13.04,4.66,21.49,18.13,21.89,31.7c-0.16,28-0.03,56.01-0.07,84.01
		c-0.1,13.22,0.39,26.43-0.02,39.65c-10.42,0.01-20.84,0.01-31.26,0c-11.01-0.17-22.37-3.49-30.68-10.95
		c-8.99-8.1-12.85-20.91-11.3-32.75c1.33-11.6,7.89-21.87,15.66-30.29c8.44-9.23,17.96-17.4,26.44-26.59
		c4.74-5.32,9.15-11.7,9.2-19.12c0.47-7.3-3.82-14.77-10.76-17.39c-13.64-5.62-29.23-2.31-42.04,4
		C353.98,188.34,354.47,181.1,354.73,173.85 M381.55,272.56c-7.13,8.53-7.7,22.4,0.32,30.55c6.54,6.55,16.51,7.14,25.22,6.53
		c0.02-20.99-0.02-41.99,0.02-62.98C398.62,255.32,389.4,263.29,381.55,272.56z"/>
	<path d="M585.55,181.55c6.93-7.71,17.41-11.09,27.48-11.87c12.47-0.77,24.95,1.04,37.07,3.83c0.2,7.22,0.57,14.43,1.17,21.63
		c-10.26-4.96-21.83-7.91-33.25-6.39c-5.76,0.93-11.94,2.79-15.73,7.52c-4.74,5.96-4.92,14.59-1.72,21.31
		c2.91,6,7.56,10.89,12.27,15.51c11.46,11.92,25.17,22.36,32.66,37.46c7.05,13.78,6.06,31.84-4.15,43.81
		c-8.23,9.45-21.07,13.65-33.31,13.95c-13.3,0.09-26.57-2.06-39.27-5.99c-0.51-7.64-0.8-15.31-1.64-22.93
		c12.2,6.37,25.88,11.02,39.81,9.9c7.13-0.57,14.79-3.44,18.55-9.93c4.66-7.34,4.12-17.14-0.37-24.42
		c-2.52-4.02-5.93-7.38-9.24-10.75c-8.86-8.87-18.14-17.33-26.48-26.72c-6.45-7.5-11.62-16.54-12.74-26.52
		C575.28,200.48,578.57,189.47,585.55,181.55z"/>
	<path d="M670.98,173.69c16.9-3.54,35.2-6.73,51.87-0.49c12.7,4.56,20.97,17.54,21.75,30.73c-0.15,28.35-0.04,56.71-0.07,85.06
		c-0.16,13.16,0.65,26.32-0.04,39.48c-10.16,0.01-20.32-0.06-30.47,0.06c-10.38-0.06-21.01-2.85-29.34-9.21
		c-7.86-5.96-12.6-15.52-13.48-25.27c-1.33-11.76,3.05-23.38,10.05-32.68c9.64-12.64,22.33-22.46,32.87-34.28
		c4.4-5.08,8.36-11.15,8.48-18.1c0.53-7.34-3.75-14.84-10.69-17.55c-13.68-5.62-29.34-2.36-42.17,4.01
		C670.41,188.22,670.62,180.95,670.98,173.69 M698.12,272.01c-7.22,8.38-8.1,22-0.5,30.43c6.47,6.91,16.76,7.75,25.67,7.06
		c-0.01-20.99-0.02-41.98,0-62.97C715,255.12,705.9,262.94,698.12,272.01z"/>
	<path d="M154.41,173.7c13.33-5.29,29.4-3.65,41.03,4.91c6,4.16,10.11,10.49,12.51,17.29c4.06,10.54,4.1,21.99,4.28,33.12
		c0.04,32.84-0.01,65.69,0.03,98.54c-6.97,0-13.94-0.02-20.91,0.01c0.02-30.85,0.01-61.7,0.01-92.54
		c-0.04-8.31-0.18-16.78-2.5-24.82c-2.26-7.83-8.68-14.38-16.66-16.32c-13.58-3.37-28.57,4.89-33.66,17.77
		c-3.63,8.95-4.39,18.74-4.7,28.31c-0.01,29.2-0.01,58.39,0,87.59c-6.98-0.01-13.95,0.01-20.93-0.01c0.02-47.53,0-95.06,0.01-142.59
		c0.01-3.73-0.13-7.46,0.22-11.18c6.22,0.11,12.44,0.04,18.65,0.05c0.04,7.24,0.02,14.49,0.01,21.74
		C136.82,186.2,144.38,177.74,154.41,173.7z"/>
	<path d="M752.73,316.51c-1.9-3.52,1.45-7.61,5.18-7.41c3.8-0.7,7.91,1.59,8.24,5.71c-3.17,1.62-2.72-2.42-4.79-3.1
		c-1.93-0.61-4.43-0.75-5.97,0.76c-1.12,1-0.94,3.02,0.49,3.66c2.86,1.34,6.33,1.27,8.92,3.22c2.53,1.99,2.09,6.23-0.4,8.07
		c-4.58,3.29-12.88,1.18-13.09-5.24c2.35-0.8,2.9,1.07,3.71,2.65c2.02,2.2,5.98,2.4,8.26,0.44c0.96-1.08,1.05-3.3-0.37-4.04
		C759.72,319.3,754.9,320.01,752.73,316.51z"/>
	<path d="M769.82,309.29c1.25-0.01,2.5-0.02,3.76-0.02c1.82,5.43,3.62,10.88,5.37,16.34c1.84-5.45,3.72-10.89,5.61-16.33
		c1.08-0.01,2.17-0.01,3.27-0.02c0.01,6.46-0.01,12.91,0.01,19.37c-0.62,0-1.85,0-2.47,0c-0.01-5.32,0.03-10.64-0.02-15.96
		c-1.79,5.32-3.65,10.61-5.43,15.93c-0.55,0.01-1.67,0.04-2.22,0.05c-1.81-5.36-3.64-10.71-5.23-16.14
		c-0.28,5.37-0.1,10.76-0.13,16.14c-0.63-0.01-1.89-0.02-2.51-0.03C769.84,322.18,769.84,315.73,769.82,309.29z"/>
	<path d="M499.53,393.4c1.48,0,2.97,0,4.47,0.01c-0.06,2.82-0.07,5.66-0.07,8.49c-1.48-0.02-2.94-0.02-4.41-0.02
		C499.55,399.05,499.54,396.22,499.53,393.4z"/>
	<path d="M226.35,393.4c1.5-0.01,3.01-0.01,4.52-0.01c-0.02,20.15-0.02,40.3,0,60.44c-1.42-0.01-2.85-0.01-4.27,0
		c0.01-1.78,0.04-3.55,0.09-5.32c-1.31,2.77-3.18,5.98-6.57,6.29c-5.27,0.6-8.74-4.53-10.26-8.89c-2.94-8.85-2.77-18.64-0.28-27.57
		c1.29-4.31,4.43-9.3,9.49-9.21c3.58-0.2,5.82,3,7.36,5.77C226.27,407.73,226.41,400.56,226.35,393.4 M216.49,416.48
		c-3.56,3.49-3.85,8.87-4.05,13.55c-0.03,5.69-0.13,12.07,3.62,16.75c1.49,2.04,4.65,2.66,6.51,0.75c3.85-3.71,4.09-9.52,4.2-14.52
		c-0.1-5.45-0.08-11.6-3.76-16.01C221.49,415.01,218.25,414.59,216.49,416.48z"/>
	<path d="M266.29,453.82c0.02-20.14,0.01-40.28,0-60.43c1.5,0,3.01,0.01,4.53,0.01c-0.02,20.15-0.01,40.29-0.01,60.43
		C269.3,453.82,267.79,453.82,266.29,453.82z"/>
	<path d="M322.91,393.44c1.54-0.02,3.09-0.05,4.64-0.06c0.01,20.14-0.03,40.29,0.02,60.44c-1.44,0-2.88,0-4.31,0.01
		c0.02-1.75,0.06-3.5,0.12-5.24c-1.46,3.32-4.35,6.97-8.45,6.19c-5.39-1.03-7.95-6.78-9.25-11.54c-1.91-8.44-1.79-17.5,0.86-25.77
		c1.39-4.1,4.72-8.67,9.56-8.33c3.24-0.01,5.38,2.88,6.73,5.48C323.26,407.57,323.21,400.49,322.91,393.44 M314.45,415.63
		c-4.19,2.46-4.92,7.9-5.23,12.32c-0.14,5.76-0.53,11.97,2.36,17.18c1.18,2.23,3.77,4.49,6.43,3.21c3.92-2.24,4.86-7.23,5.28-11.35
		c0.28-5.86,0.49-12.07-1.98-17.53C320.18,416.92,317.43,414.25,314.45,415.63z"/>
	<path d="M278.51,399.21c1.54-1.51,3.07-3.02,4.6-4.53c-0.02,5.15-0.05,10.3,0.02,15.46c1.5-0.02,3-0.03,4.51-0.03
		c-0.01,1.93-0.01,3.87,0.01,5.81c-1.51-0.02-3-0.03-4.5-0.03c-0.14,8.36-0.01,16.72-0.07,25.08c0.06,2.31-0.4,5.01,1.66,6.64
		c0.72-0.11,2.14-0.33,2.85-0.43c0.15,2.15,0.37,4.3,0.7,6.44c-2.34,0.97-5.41,1.44-7.41-0.48c-2.2-2.15-2.21-5.42-2.32-8.27
		c-0.16-9.68,0.02-19.36-0.09-29.04c-0.81,0.07-2.43,0.23-3.24,0.31c-0.04-2.02-0.06-4.03-0.07-6.04c0.83,0.01,2.49,0.03,3.32,0.04
		C278.5,406.5,278.49,402.85,278.51,399.21z"/>
	<path d="M121.19,410.36c3.09-2.15,7.68-1.47,10.07,1.42c2.61,3.09,3.06,7.36,3.16,11.25c0.16,10.27,0,20.53,0.08,30.8
		c-1.56-0.01-3.13-0.02-4.7-0.02c-0.02-9.91,0.09-19.83-0.05-29.75c-0.04-3.32-1-7.67-4.77-8.52c-4.52-0.34-7.01,4.59-7.25,8.47
		c-0.81,9.92-0.22,19.89-0.38,29.82c-1.5-0.01-2.99-0.02-4.49-0.02c-0.01-14.53,0.05-29.06-0.03-43.59c1-0.08,3-0.26,4-0.35
		c0.04,2.03,0.07,4.08,0.08,6.12C118.09,413.95,119.15,411.67,121.19,410.36z"/>
	<path d="M144.77,412.72c2.82-3.71,8.63-4.9,12.41-1.97c3.8,2.96,4.79,7.98,5.59,12.45c-1.49,0.29-2.97,0.58-4.46,0.86
		c-0.64-3.01-1.28-6.53-4.1-8.31c-2.82-1.47-6.01,0.58-7.27,3.17c-2.58,4.9-2.4,10.67-2.28,16.06c0.26,4.3,0.7,9.19,3.97,12.37
		c1.79,1.77,4.9,1.77,6.69-0.02c2.6-2.46,2.9-6.23,3.48-9.55c1.49,0.36,2.99,0.72,4.49,1.08c-0.7,4.92-1.78,10.29-5.63,13.79
		c-3.36,3.37-9.42,2.69-12.39-0.87c-4.73-5.4-5.2-12.99-5.38-19.82C140.16,425.38,140.49,418.1,144.77,412.72z"/>
	<path d="M187.16,410.06c4.52-1.77,10.97-1.38,13.65,3.25c2.88,5.43,1.61,11.82,1.9,17.7c0.27,7.59-0.79,15.39,1.35,22.79
		c-1.57,0.01-3.14,0.03-4.7,0.05c-0.35-1.75-0.66-3.5-0.91-5.26c-1.62,2-3.25,4.13-5.61,5.29c-3.69,1.88-8.9,1.07-11.1-2.68
		c-3.26-5.45-3.11-12.85,0.27-18.2c3.72-5.3,11-4.09,16.22-6.85c-0.13-2.92,0.26-6.23-1.62-8.7c-1.82-2.35-5.25-2.61-7.89-1.72
		c-3.1,1.31-3.54,5.03-4.3,7.88c-1.48-0.34-2.96-0.69-4.44-1.02C180.62,417.75,182.18,412.11,187.16,410.06 M187.11,435.9
		c-4.09,2.51-4.03,9.5-0.3,12.34c2.82,1.54,6.5,0.37,8.41-2.09c3.3-3.86,2.92-9.29,3.01-14.04
		C194.72,433.95,190.75,434.45,187.11,435.9z"/>
	<path d="M339.51,410.69c4.72-2.65,12.1-2.32,15,2.85c2.51,5.11,1.55,11,1.77,16.49c0.25,7.93-0.8,16.05,1.32,23.81
		c-1.58-0.02-3.17-0.03-4.74-0.02c-0.3-1.73-0.58-3.48-0.8-5.2c-2.43,3.19-5.73,6.53-10.1,6.21c-4.49,0.25-7.69-3.9-8.46-7.94
		c-0.98-5.34-0.61-11.78,3.67-15.67c3.59-3,8.64-2.55,12.78-4.33c3.13-0.62,1.51-4.59,1.44-6.76c-0.63-4.54-6.5-6.16-10.03-3.88
		c-2.36,1.67-2.68,4.77-3.35,7.37c-1.52-0.35-3.04-0.7-4.55-1.05C334.26,418.19,335.32,413.11,339.51,410.69 M341.36,435.57
		c-4.04,1.58-4.54,7.17-2.79,10.63c1.66,3.69,7.04,3.36,9.51,0.72c4.02-3.81,3.59-9.78,3.72-14.84
		C348.52,433.8,344.86,434.46,341.36,435.57z"/>
	<path d="M404.03,413c3.32-5.12,11.62-5.12,15.32-0.43c1.98,2.49,2.4,5.77,2.69,8.85c-1.44,0.3-2.87,0.62-4.3,0.95
		c-0.52-2.45-1.1-5.36-3.53-6.62c-1.72-0.72-3.73-0.6-5.43,0.07c-3.26,1.72-3.77,7.07-0.8,9.29c4.12,2.6,9.4,3.49,12.75,7.24
		c3.59,5.3,3.04,12.81-0.26,18.13c-3.14,5.17-11.26,5.89-15.35,1.51c-2.73-3.12-3.54-7.35-4.07-11.33c1.5-0.35,3.01-0.7,4.52-1.05
		c0.55,2.51,0.87,5.27,2.66,7.27c2.32,2.64,7.23,2.42,9.03-0.71c1.48-2.44,1.83-6.03-0.15-8.28c-4.2-3.29-10.54-3.63-13.59-8.41
		C400.78,424.46,400.98,417.85,404.03,413z"/>
	<path d="M432.41,412.26c2.41-2.91,6.62-3.89,10.14-2.61c3.22,1.31,5.31,4.37,6.63,7.47c2.22,5.25,2.41,11.05,2.46,16.67
		c-6.77,0.1-13.54-0.03-20.3,0.08c0.46,4.42,0.8,9.37,4.03,12.78c1.73,2.08,5.05,2.8,7.31,1.11c2.64-1.87,3.4-5.2,4.31-8.11
		c1.5,0.33,3.01,0.67,4.53,1.01c-0.87,4.15-2.09,8.54-5.23,11.59c-3.89,3.92-11.05,3.3-14.41-1.01c-4.58-5.62-5.14-13.28-5.08-20.23
		C427,424.48,427.9,417.33,432.41,412.26 M435.73,416.7c-3.12,2.74-3.87,7.08-4.2,11.02c5.15-0.01,10.31,0.01,15.48-0.02
		c-0.39-3.81-0.86-8.07-3.81-10.85C441.27,414.79,437.75,414.76,435.73,416.7z"/>
	<path d="M460.76,416.32c1.1-2.47,1.72-5.63,4.34-6.96c2.16-0.87,4.15,0.64,5.95,1.64c-0.37,2.45-0.89,4.88-1.44,7.31
		c-1.36-0.68-3-2.29-4.54-1.2c-3.16,1.99-3.18,6.24-3.62,9.55c-0.39,9.05-0.08,18.12-0.16,27.18c-1.52-0.02-3.03-0.02-4.54-0.02
		c0-14.53,0.06-29.07-0.03-43.6c0.99-0.09,2.98-0.27,3.97-0.36C460.72,412,460.73,414.16,460.76,416.32z"/>
	<path d="M537.87,415.96c1.73-3.49,4.93-6.92,9.12-6.82c3.67-0.35,6.91,2.14,8.71,5.15c3.61,5.81,3.89,12.89,3.88,19.53
		c-6.74,0.02-13.48,0-20.22,0c0.38,4.46,0.81,9.38,3.98,12.84c1.75,2.06,5.06,2.8,7.31,1.09c2.63-1.86,3.45-5.19,4.31-8.11
		c1.51,0.33,3.02,0.67,4.55,1.01c-0.88,4.16-2.08,8.58-5.26,11.61c-3.54,3.54-9.97,3.44-13.48-0.1c-4.29-4.17-5.46-10.42-5.91-16.14
		C534.56,429.25,534.83,422.15,537.87,415.96 M543.71,416.69c-3.09,2.77-3.86,7.08-4.2,11.02c5.15,0.01,10.3,0.01,15.45,0
		c-0.34-3.85-0.85-8.14-3.85-10.92C549.18,414.78,545.71,414.79,543.71,416.69z"/>
	<path d="M566.03,412.99c3.22-4.95,11.13-5.12,14.96-0.83c2.29,2.48,2.58,6.01,3.29,9.16c-1.52,0.34-3.04,0.69-4.54,1.06
		c-0.54-2.82-1.5-6.63-4.91-7.02c-3.49-0.91-7.23,1.95-6.74,5.66c-0.34,3.42,3.09,4.99,5.73,6.03c3.65,1.76,8.24,3.09,10.01,7.14
		c2.25,5.41,1.64,12.09-1.79,16.88c-3.38,4.72-11.11,5.08-14.99,0.85c-2.69-3.12-3.48-7.31-4.01-11.26c1.5-0.35,3.01-0.7,4.53-1.06
		c0.53,3.73,1.86,8.8,6.43,9.09c5.5,0.74,8.4-6.96,5.13-10.77c-4.2-3.34-10.58-3.66-13.64-8.46
		C562.8,424.42,562.98,417.83,566.03,412.99z"/>
	<path d="M609.85,410.52c4.66-2.44,11.75-2.05,14.61,2.93c2.72,5.45,1.56,11.72,1.82,17.57c0.27,7.6-0.76,15.42,1.36,22.84
		c-1.6-0.03-3.2-0.05-4.78-0.05c-0.29-1.74-0.59-3.51-0.79-5.25c-2.37,3.28-5.76,6.6-10.14,6.27c-5.21,0.21-8.44-5.14-8.73-9.79
		c-0.65-5.5,0.49-12.38,5.93-15.13c4.11-1.62,8.66-1.84,12.67-3.81c-0.16-2.86,0.23-6.04-1.5-8.52c-1.89-2.5-5.64-2.88-8.35-1.66
		c-2.82,1.47-3.24,4.93-3.95,7.68c-1.51-0.33-3.02-0.66-4.51-0.98C604.22,418.11,605.4,412.82,609.85,410.52 M611.38,435.59
		c-4.08,1.54-4.55,7.16-2.81,10.61c1.81,3.89,7.5,3.27,9.91,0.33c3.63-3.88,3.18-9.54,3.33-14.46
		C618.53,433.8,614.87,434.46,611.38,435.59z"/>
	<path d="M634.17,413.12c3.1-5.05,11.03-5.28,14.94-1.09c2.39,2.49,2.74,6.11,3.34,9.34c-1.5,0.32-2.99,0.65-4.48,0.99
		c-0.42-3.18-2.05-7.34-5.93-7.1c-5.14-0.78-7.84,6.58-4.08,9.71c3.7,2.35,8.14,3.37,11.68,6.02c3.19,2.63,3.83,7.09,3.67,10.99
		c-0.2,4.78-2.26,10.13-6.92,12.17c-3.77,1.38-8.65,0.81-11.29-2.46c-2.55-3.1-3.31-7.19-3.85-11.05c1.55-0.33,3.1-0.66,4.67-0.99
		c0.4,2.43,0.67,5.11,2.38,7.05c2.29,2.9,7.66,2.67,9.33-0.77c1.36-2.47,1.69-5.99-0.42-8.14c-4.05-3.1-9.94-3.5-13.14-7.78
		C630.98,424.98,631.09,418.13,634.17,413.12z"/>
	<path d="M663.77,409.77c3.7-1.37,8.33-0.64,11.02,2.39c2.28,2.5,2.71,6.01,3.16,9.22c-1.48,0.32-2.94,0.65-4.4,0.98
		c-0.51-1.94-0.76-4.13-2.26-5.62c-1.64-1.82-4.47-1.73-6.61-0.98c-3.41,1.68-4.03,7.2-0.82,9.4c3.76,2.29,8.26,3.3,11.69,6.15
		c3.24,2.96,3.54,7.74,3.22,11.83c-0.4,4.4-2.52,9.16-6.8,10.97c-3.83,1.53-8.83,0.75-11.46-2.61c-2.45-3.07-3.07-7.07-3.76-10.81
		c1.54-0.36,3.08-0.73,4.64-1.09c0.48,3.8,1.93,9.01,6.63,9.1c5.58,0.58,8.41-7.73,4.46-11.17c-3.71-2.5-8.41-3.25-11.78-6.29
		c-2.89-2.89-3.47-7.28-3.19-11.18C657.78,415.94,659.72,411.43,663.77,409.77z"/>
	<path d="M691.44,409.74c3.78-1.53,8.4-0.26,10.82,3.05c4.69,5.94,5.14,13.95,4.97,21.21c-0.24,6.42-1.09,13.67-6.09,18.28
		c-3.25,3.31-9.06,3.42-12.43,0.25c-3.99-3.72-5.45-9.32-5.99-14.57c-0.46-6.07-0.48-12.3,1.17-18.2
		C685.07,415.69,687.38,411.5,691.44,409.74 M693.38,415.48c-4.7,2.02-5.75,7.87-6.11,12.44c-0.18,6.24-0.63,13.3,3.35,18.57
		c1.72,2.43,5.53,3,7.68,0.78c3.51-3.4,4.01-8.63,4.28-13.25c0.12-5.3,0.05-11.04-2.88-15.67
		C698.45,416.21,695.88,414.63,693.38,415.48z"/>
	<path d="M714.32,415.48c2.04-4.5,7.33-7.74,12.24-5.85c5.2,2.24,6.95,8.42,7.37,13.6c-1.41,0.3-2.8,0.62-4.19,0.95
		c-0.73-3.21-1.42-7.37-4.89-8.73c-4.13-1.12-6.98,3.18-7.84,6.64c-1.49,6.49-1.44,13.35-0.03,19.85c0.81,3.56,3.87,7.88,8.05,6.5
		c3.91-1.84,4.56-6.62,5.05-10.43c1.52,0.23,3.06,0.5,4.6,0.77c-0.7,5.06-1.87,10.6-5.9,14.13c-3.34,2.97-8.92,2.41-11.86-0.87
		c-4.03-4.24-5.12-10.33-5.5-15.95C711.11,429.15,711.33,421.87,714.32,415.48z"/>
	<path d="M237.78,410.14c1.53-0.01,3.06-0.02,4.59-0.03c0.01,9.31-0.03,18.61,0.02,27.92c0.09,3.16,0.11,6.77,2.52,9.15
		c1.87,1.94,5.1,1.37,6.82-0.47c3.15-3,3.16-7.68,3.41-11.7c0.04-8.3,0-16.6,0-24.9c1.5,0,3.01,0,4.51,0.01
		c0.01,14.57,0,29.14,0.01,43.71c-1.04,0-3.13,0-4.18,0c0-2.08-0.01-4.16-0.01-6.23c-1.37,2.92-3.16,6.15-6.54,7.02
		c-3.89,1.08-7.94-1.48-9.43-5.05c-1.49-3.67-1.68-7.69-1.7-11.59C237.76,428.7,237.81,419.42,237.78,410.14z"/>
	<path d="M360.44,410.11c1.63,0,3.26,0.01,4.9,0.03c2.46,11.59,5.32,23.09,7.54,34.74c2.07-11.68,4.96-23.19,7.46-34.77
		c1.52,0,3.04,0.01,4.58,0.02c-3.83,16.65-7.46,33.34-11.32,49.98c-0.96,3.52-1.72,7.37-4.27,10.15c-1.56,1.66-5.02,2.13-6.38,0.07
		c-0.28-2.11-0.38-4.23-0.55-6.34c1.83,0.44,4.31,1.03,5.54-0.91c1.62-2.73,2.05-5.99,2.57-9.07
		C367.32,439.35,363.81,424.74,360.44,410.11z"/>
	<path d="M490.56,410.12c1.62,0,3.25,0,4.88,0c-3.31,14.56-6.46,29.16-9.73,43.72c-1.57-0.02-3.13-0.04-4.68-0.06
		c-3.17-14.68-6.88-29.24-9.95-43.93c1.64,0.11,3.28,0.26,4.93,0.42c2.11,11.58,5.26,22.96,7.12,34.59
		C485.57,433.27,488.1,421.7,490.56,410.12z"/>
	<path d="M499.53,410.1c1.51,0.01,3.02,0.03,4.53,0.06c-0.18,14.55-0.06,29.12-0.13,43.68c-1.47-0.01-2.94-0.02-4.4-0.01
		C499.55,439.25,499.55,424.67,499.53,410.1z"/>
	<path d="M513.21,414.21c2.4-4.25,8.13-6.59,12.58-4.08c4.48,2.68,5.7,8.24,6.48,13.01c-1.45,0.35-2.91,0.7-4.35,1.07
		c-0.66-2.95-1.24-6.37-3.87-8.25c-2.15-1.5-5.17-0.42-6.6,1.57c-2.99,3.77-3.16,8.87-3.27,13.48c0.04,5.03-0.07,10.52,2.77,14.92
		c1.38,2.3,4.61,3.68,7.02,2.07c3.35-2.22,3.77-6.59,4.4-10.2c1.48,0.36,2.97,0.71,4.47,1.06c-0.71,5.04-1.87,10.58-5.91,14.06
		c-3.4,2.97-8.98,2.36-11.93-0.94c-4.4-4.84-5.28-11.73-5.5-18C509.43,427.28,509.76,420.15,513.21,414.21z"/>
	<path d="M739.4,445.31c1.73,0,3.46,0.01,5.21,0.01c-0.01,2.84-0.01,5.67,0.02,8.51c-1.76,0-3.5,0-5.24,0.01
		C739.41,450.99,739.41,448.15,739.4,445.31z"/>
</g>
<g id="_x23_9d0098ff">
	<path fill="#9D0098" d="M618.19,202.16c6.28-4.37,14.27-5.74,21.79-5.23c7.8,0.63,16.23,3.59,20.55,10.55
		c4.85-7.84,14.76-10.53,23.46-10.68c8.3,0.16,17.71,2.33,22.87,9.4c3.6,4.93,2.45,11.88-1.31,16.38
		c-8.32,10.29-18.67,18.65-28.02,27.95c-6.14,6.05-11.93,12.47-17.01,19.44c-10.92-15.39-25.86-27.13-38.96-40.52
		c-3.7-4.08-8.17-8.07-9.33-13.71C610.95,210.5,613.91,205.09,618.19,202.16z"/>
	<path fill="#9D0098" d="M113.08,347.52c210.41-0.01,420.82,0.01,631.23-0.01c-0.03,6.91-0.04,13.83,0,20.75
		c-210.41-0.03-420.82-0.03-631.22-0.01C113.1,361.34,113.11,354.43,113.08,347.52z"/>
</g>
</svg>
