<?xml version="1.0" encoding="utf-8"?>
<!-- Generator: Adobe Illustrator 17.0.0, SVG Export Plug-In . SVG Version: 6.00 Build 0)  -->
<!DOCTYPE svg PUBLIC "-//W3C//DTD SVG 1.1//EN" "http://www.w3.org/Graphics/SVG/1.1/DTD/svg11.dtd">
<svg version="1.1" id="Layer_1" xmlns="http://www.w3.org/2000/svg" xmlns:xlink="http://www.w3.org/1999/xlink" x="0px" y="0px"
	 width="432.88px" height="331.516px" viewBox="72.71 54.21 432.88 331.516" enable-background="new 72.71 54.21 432.88 331.516"
	 xml:space="preserve">
<g id="_x23_232021ff">
	<path fill="#232021" d="M341.81,54.38c4.51-0.27,9.02-0.09,13.53-0.17c-0.03,45.34-0.01,90.67-0.01,136
		c-4.05-0.04-8.1-0.06-12.14,0.05c-0.49-4.11-0.2-8.25-0.4-12.36c-3.16,6.71-9.18,12.42-16.65,13.78
		c-8.72,1.95-18.03-1.35-24.3-7.54c-8.97-8.56-12.92-21.04-14.26-33.07c-1.23-14.69-0.29-30.12,6.16-43.6
		c4.75-10,14.84-18.02,26.25-17.9c9.17-0.42,17.46,5.62,21.78,13.38C341.97,86.76,341.91,70.57,341.81,54.38 M315.48,104.65
		c-7.46,3.32-11.59,11.28-13.18,18.94c-2.12,10.66-2.22,21.74-0.33,32.44c1.48,8.03,5.36,16.24,12.63,20.51
		c5.8,3.52,13.71,2.32,18.53-2.33c5.99-5.33,8.59-13.35,9.49-21.1c1.12-9.18,0.84-18.54-0.84-27.63
		c-1.34-7.14-4.55-14.29-10.45-18.78C326.89,103.3,320.63,102.43,315.48,104.65z"/>
	<path fill="#232021" d="M227.75,91.63c10.54-2.23,21.87-4.11,32.36-0.66c8.58,2.67,14.35,11.19,14.89,19.99
		c-0.23,19.65-0.05,39.32-0.12,58.98c0.12,6.98,0.59,13.99-0.06,20.96c-11.44-0.76-23.72,2.04-34.36-3.43
		c-6.8-3.21-11.39-10.11-12.41-17.48c-1.38-8.49,2.09-17.01,7.39-23.52c6.17-7.52,13.8-13.68,20.28-20.92
		c3.04-3.45,5.53-7.81,5.12-12.57c0-4.63-3.26-8.93-7.66-10.33c-8.57-3.07-18.14-1.06-26.11,2.85
		C227.36,100.88,227.64,96.26,227.75,91.63 M244.97,154.99c-4.63,5.49-4.94,14.52,0.39,19.65c4.15,4.18,10.47,4.33,15.98,4.12
		c0.01-13.49-0.05-26.98,0.02-40.47C255.99,143.95,249.95,148.97,244.97,154.99z"/>
	<path fill="#232021" d="M383.86,91.09c10.71-4.06,22.51-2.03,33.38,0.34c0.12,4.61,0.42,9.21,0.62,13.82
		c-8.02-3.92-17.65-6.02-26.25-2.79c-4.36,1.52-7.58,5.83-7.47,10.49c-0.37,4.8,2.24,9.13,5.3,12.59
		c6.51,7.17,14.09,13.33,20.23,20.85c5.53,6.83,9,15.93,7,24.75c-1.42,7.71-7.05,14.36-14.38,17.11
		c-10.66,4.19-22.5,2.24-33.32-0.29c-1.26-0.61-3.39-0.3-3.95-1.86c-0.46-4.62-0.43-9.29-0.95-13.91
		c9.45,4.78,20.69,8.59,31.18,5.01c8.65-3,10.71-14.93,5.3-21.74c-5.59-7.02-12.61-12.73-18.74-19.25
		c-5.48-5.53-10.5-12.19-11.56-20.12C368.48,106.02,374.01,94.68,383.86,91.09z"/>
	<path fill="#232021" d="M430.6,91.53c10.84-2.29,22.59-4.32,33.27-0.33c8.46,3.07,13.95,11.93,13.95,20.78
		c-0.09,26.26,0.06,52.52-0.02,78.77c-11.83-0.71-24.7,2.28-35.52-3.94c-10.56-5.54-14.2-19.58-9.93-30.27
		c3.95-10.54,13.1-17.6,20.71-25.4c4.53-4.51,9.94-9.33,10.59-16.11c0.78-5.24-2.38-10.79-7.49-12.44
		c-8.66-3.09-18.39-1.15-26.41,2.92C430.33,100.87,430.44,96.2,430.6,91.53 M447.79,154.9c-4.46,5.37-4.88,14.02,0.01,19.25
		c4.16,4.45,10.74,4.89,16.44,4.43c-0.09-13.47-0.04-26.95-0.03-40.42C458.8,143.79,452.75,148.84,447.79,154.9z"/>
	<path fill="#232021" d="M98.04,92.1c10.8-5.09,25.28-2.42,32.46,7.46c5.03,7.43,5.87,16.71,5.86,25.44
		c0.05,21.75,0.01,43.5,0.02,65.24c-4.43-0.03-8.85-0.04-13.28,0.02c-0.2-21.73,0.2-43.46-0.26-65.19c-0.08-6.7-1.4-14.43-7.4-18.46
		c-8.51-5.77-20.99-1.34-25.5,7.5c-3.33,6.75-3.72,14.49-3.78,21.89c0,18.08-0.02,36.15,0.01,54.22c-4.48,0.01-8.96,0-13.45,0.01
		c0.01-32.86,0.04-65.73-0.01-98.6c4.03,0.01,8.05,0,12.08-0.01c-0.02,4.65,0.01,9.29-0.08,13.93
		C87.93,100.06,92.12,94.8,98.04,92.1z"/>
	<path fill="#232021" d="M158.57,102.42c9.42-13.3,29.71-17.38,43.26-8.13c8.59,5.96,12.68,16.29,14.28,26.28
		c-4.38,0.87-8.77,1.67-13.19,2.32c-1.16-6.11-3.34-12.49-8.32-16.55c-5.08-4.41-12.86-4.31-18.57-1.18
		c-5.64,3.13-9.39,8.91-11.14,15.01c-2.71,9.33-2.78,19.19-2.19,28.81c0.79,8.62,2.5,18.03,9.07,24.24
		c5.58,5.71,15.24,6.89,21.92,2.42c7.43-4.72,9.4-13.98,10.73-22.06c4.27,1.05,8.62,1.69,12.97,2.37
		c-1.4,10.9-5.42,22.16-14.1,29.37c-12.18,10.39-32.45,8.24-42.64-3.96c-9.81-11.26-11.92-26.94-11.89-41.35
		C149.04,127.03,150.88,113.26,158.57,102.42z"/>
	<path fill="#232021" d="M482.68,181.79c0.06-5.18,9.71-4.49,8.78,0.83c-1.86-1.67-4.46-4.25-6.91-1.93
		c-1.57,2.23,2.08,2.52,3.41,3.07c1.7,0.45,3.74,1.12,3.99,3.19c0.23,3.13-3.39,4.83-6.05,4.03c-2.11-0.34-4.67-2.83-2.83-4.8
		c0.78,3.39,6.61,5.13,7.33,0.87C488.46,184.49,483.06,185.75,482.68,181.79z"/>
	<path fill="#232021" d="M503.53,178.42c0.51,0.01,1.53,0.02,2.04,0.03c0.01,4.18,0.04,8.37,0,12.56c-0.39-0.1-1.16-0.3-1.55-0.4
		c-0.22-3.24-0.07-6.49-0.23-9.72c-1.02,3.39-2.14,6.76-3.38,10.09c-0.37-0.09-1.11-0.25-1.49-0.34c-0.75-2.5-1.68-4.95-2.54-7.41
		c0.41-0.22,1.24-0.65,1.65-0.86c0.41,2.23,1.09,4.41,1.86,6.56C501.06,185.41,502.23,181.89,503.53,178.42z"/>
	<path fill="#232021" d="M493.91,178.43c2.03-0.23,3.31,0.76,3.86,2.97c-1.1,0.54-2.17,0.08-3.1-0.55c1.1,3.42,0.98,7.14,0.7,10.69
		c-0.34-0.34-1.01-1.03-1.34-1.37C493.74,186.26,494,182.34,493.91,178.43z"/>
	<path fill="#232021" d="M353.38,232.27c1.48,0,2.96,0,4.45,0.01c-0.06,12.93,0.04,25.87-0.05,38.8c-1.43,0.02-2.87,0.06-4.29,0.1
		C353.26,258.21,353.47,245.24,353.38,232.27z"/>
	<path fill="#232021" d="M364.74,232.29c1.51,0,3.04-0.01,4.56-0.01c-0.01,1.81-0.01,3.63,0,5.44c-1.53-0.01-3.05-0.02-4.57-0.03
		C364.74,235.89,364.74,234.09,364.74,232.29z"/>
	<path fill="#232021" d="M211.72,232.28c1.52,0,3.04,0,4.56,0.01c-0.04,4.54,0.05,9.08-0.1,13.62c2.18-1.9,4.7-3.82,7.77-3.59
		c4.48-0.44,9.06,2.91,9.15,7.59c0.41,7.05,0.05,14.13,0.18,21.2c-1.51-0.01-3.03-0.01-4.54-0.01c-0.03-6.39,0.13-12.79-0.04-19.18
		c0.11-2.68-1.94-5.41-4.74-5.46c-3.81-0.55-7.43,2.66-7.54,6.46c-0.36,6.06-0.03,12.13-0.16,18.2c-1.51-0.01-3.01-0.01-4.5,0
		C211.71,258.17,211.78,245.22,211.72,232.28z"/>
	<path fill="#232021" d="M198.28,236.04c1.5-0.99,3-1.99,4.5-2.97c0.01,3.26,0.01,6.52-0.04,9.79c1.53,0.01,3.07,0.01,4.6,0.03
		c0.01,0.95,0.02,2.86,0.03,3.82c-1.54-0.02-3.07-0.03-4.61-0.04c0.14,6.15-0.18,12.3,0.14,18.44c0.21,2.34,2.95,1.47,4.52,1.8
		c0.15,1.43,0.3,2.87,0.45,4.32c-2.62,0.03-5.71,0.71-7.88-1.21c-1.77-1.47-1.51-3.96-1.65-6.01c-0.08-5.78-0.01-11.57-0.02-17.35
		c-0.8,0.02-2.4,0.05-3.2,0.07c-0.22-0.77-0.68-2.3-0.9-3.06c-0.25,1.46-0.51,2.93-0.78,4.4c-2.93-1.58-7.07-0.75-7.75,2.93
		c-1.14,6.5-0.4,13.17-0.5,19.74c-1.54,0.17-3.09,0.33-4.63,0.5c-0.03-9.45,0.01-18.91-0.01-28.37c1-0.01,3-0.02,3.99-0.03
		c-0.01,1.37-0.02,2.74-0.03,4.12c1.3-1.7,2.34-3.97,4.59-4.56c1.85-0.38,3.63,0.43,5.33,1.04c1.3-0.24,2.6-0.47,3.9-0.7
		C198.31,240.51,198.3,238.27,198.28,236.04z"/>
	<path fill="#232021" d="M127.78,246.86c3.82-6.55,15.92-6.13,17.36,2c0.64,7.43,0.11,14.92,0.27,22.38
		c-1.56-0.15-3.11-0.34-4.65-0.57c0.1-6.59,0.29-13.21-0.06-19.8c-0.24-4.02-5.41-5.56-8.54-3.69c-2.55,1.16-3.65,4.06-3.67,6.71
		c-0.25,5.78-0.01,11.58-0.12,17.37c-1.54-0.18-3.07-0.37-4.61-0.56c0.15-9.14,0.14-18.29,0-27.43c1.36-0.2,2.73-0.38,4.11-0.55
		C127.84,244.1,127.82,245.48,127.78,246.86z"/>
	<path fill="#232021" d="M159.51,242.74c4.56-1.22,9.91,0.05,12.88,3.86c3.17,4.03,3.37,9.53,2.7,14.4
		c-0.53,3.98-2.9,7.83-6.67,9.46c-6,2.99-14.41,0.37-16.66-6.22C148.97,256.67,150.43,245.09,159.51,242.74 M160.49,246.68
		c-4.84,1.92-5.65,7.89-5.14,12.43c0.14,3.84,2.56,8.08,6.7,8.54c4.12,0.7,7.67-2.88,8.29-6.74c0.65-4.09,0.79-8.9-2.09-12.23
		C166.41,246.46,163.17,245.66,160.49,246.68z"/>
	<path fill="#232021" d="M254.95,247.89c3.13-5.98,12.2-7.46,17.22-3.08c1.98,1.66,2.77,4.19,3.52,6.57
		c-1.51,0.15-3.02,0.3-4.52,0.44c-0.72-2.47-2.28-5.21-5.1-5.5c-4.1-0.77-7.66,2.82-8.14,6.7c-0.54,3.82-0.65,8.07,1.32,11.53
		c1.91,3.36,7.07,4.32,9.91,1.58c1.58-1.39,1.96-3.57,2.62-5.47c1.45,0.28,2.9,0.57,4.36,0.85c-0.79,2.54-1.51,5.28-3.57,7.12
		c-4.98,5.18-14.86,3.51-17.87-3.04C252.14,260.08,252.32,253.34,254.95,247.89z"/>
	<path fill="#232021" d="M287.49,242.59c4.57-0.67,11.05-0.59,13.15,4.42c1.89,7.93-0.77,16.41,1.88,24.25
		c-1.66-0.17-3.31-0.32-4.96-0.5c-0.1-0.78-0.3-2.33-0.39-3.1c-3.94,3.59-9.86,5.29-14.85,2.96c-5.25-2.51-5.42-10.87-0.47-13.79
		c4.53-2.63,10.09-1.92,14.98-3.52c-0.23-1.9,0.23-4.3-1.51-5.6c-4.06-2.99-11.02-1.62-11.97,3.88c-1.08-0.14-3.25-0.4-4.33-0.54
		C279.54,246.62,283.05,243.08,287.49,242.59 M285.52,259.69c-3.21,1.26-3.13,6.23-0.07,7.62c3.44,1.33,7.86,0.32,9.97-2.83
		c1.56-2.13,1.19-4.9,1.45-7.37C293.15,258.23,289.23,258.54,285.52,259.69z"/>
	<path fill="#232021" d="M316.41,242.47c2.11-0.57,4.13,0.43,6.02,1.23c-0.52,1.38-1.02,2.78-1.51,4.18
		c-1.77-0.25-3.67-1.1-5.37-0.18c-2.23,1.25-2.64,4.04-2.91,6.34c-0.32,5.72,0.09,11.45-0.22,17.17c-1.43-0.07-2.87-0.13-4.3-0.19
		c0-9.4-0.05-18.79,0.02-28.18c1.33,0.01,2.65,0.02,3.99,0.03c0.02,1.36,0.04,2.72,0.06,4.09
		C313.32,245.27,314.23,242.99,316.41,242.47z"/>
	<path fill="#232021" d="M332.49,242.71c4.6-1.18,10.03,0.14,12.9,4.11c3.58,4.97,3.47,11.75,1.7,17.39
		c-2.48,6.97-11.85,9.53-17.91,5.66c-5.25-3.26-6.26-10.13-5.63-15.79C323.87,248.95,327.3,243.89,332.49,242.71 M333.44,246.63
		c-4.92,1.84-5.72,7.84-5.23,12.4c0.01,3.91,2.59,8.2,6.76,8.64c4.02,0.62,7.54-2.84,8.2-6.62c0.72-4.3,0.83-9.5-2.49-12.81
		C338.86,246.31,335.9,245.79,333.44,246.63z"/>
	<path fill="#232021" d="M380.15,246.76c2.09-2.79,5.3-4.86,8.92-4.44c4.24-0.1,8.28,3.22,8.4,7.57c0.26,7.09,0.16,14.19,0.03,21.28
		c-1.43-0.03-2.86-0.06-4.28-0.07c-0.25-6.73,0.29-13.5-0.29-20.21c-0.28-4.11-5.55-5.62-8.7-3.63c-2.57,1.14-3.47,4.11-3.57,6.7
		c-0.19,5.71,0.03,11.43-0.09,17.15c-1.45,0-2.91,0-4.35,0.01c-0.07-9.42-0.04-18.84-0.01-28.26c1.33,0,2.66-0.01,4-0.01
		C380.19,244.15,380.17,245.45,380.15,246.76z"/>
	<path fill="#232021" d="M406.87,244.93c3.32-2.74,7.96-2.87,12.04-2.4c3.3,0.34,6.69,2.74,6.83,6.3
		c0.44,7.42-0.45,14.96,1.22,22.27c-1.41,0.02-2.82,0.04-4.22,0.07c-0.4-1.15-0.79-2.29-1.17-3.44c-3.87,3.84-10.24,5.28-15.1,2.56
		c-5.02-2.97-4.46-11.51,0.81-13.91c4.52-2.01,9.66-1.64,14.35-3.12c-0.36-1.83,0.12-4.14-1.52-5.45
		c-3.94-3.19-11.16-1.76-12.04,3.79c-1.51-0.2-3-0.4-4.5-0.59C404.36,248.85,405.01,246.44,406.87,244.93 M411.05,259.41
		c-2.67,0.51-4.39,3.99-2.66,6.27c2.34,3.29,7.48,2.58,10.33,0.34c2.83-2.05,2.73-5.81,2.87-8.92
		C418.13,258.11,414.54,258.53,411.05,259.41z"/>
	<path fill="#232021" d="M364.75,242.86c1.51,0,3.03-0.01,4.55-0.01c-0.02,9.42-0.01,18.84-0.01,28.27
		c-1.51-0.01-3.03-0.01-4.53-0.01C364.75,261.69,364.77,252.28,364.75,242.86z"/>
	<path fill="#232021" d="M159.32,289.25c1.48,0,2.95,0.01,4.43,0.02c-0.05,12.95,0.02,25.91-0.02,38.87
		c-1.47-0.02-2.93-0.03-4.39-0.04C159.32,315.15,159.35,302.2,159.32,289.25z"/>
	<path fill="#232021" d="M215.86,289.26c1.51,0.01,3.03,0.02,4.56,0.05c-0.11,12.93,0,25.86-0.06,38.8c-1.02,0-3.08,0.02-4.1,0.03
		c0-0.83-0.01-2.48-0.01-3.31c-3.23,4.61-10.3,5.08-14.29,1.21c-5.65-5.41-5.79-14.82-2.39-21.48c3.08-6.01,12.12-7.07,16.37-1.74
		C215.79,298.3,215.87,293.78,215.86,289.26 M206.47,303.77c-4.73,2.57-4.64,8.67-4.2,13.31c0.28,3.58,2.84,7.5,6.72,7.63
		c4.12,0.24,6.88-3.96,7.16-7.67c0.35-3.95,0.28-8.56-2.52-11.68C211.93,303.31,208.87,302.68,206.47,303.77z"/>
	<path fill="#232021" d="M391.69,289.27c1.53-0.01,3.05-0.02,4.59-0.01c-0.01,1.81-0.01,3.63,0.01,5.46c-1.54,0-3.08-0.01-4.6,0
		C391.69,292.9,391.69,291.08,391.69,289.27z"/>
	<path fill="#232021" d="M119.52,289.22c1.53,0.03,3.05,0.07,4.58,0.11c-0.16,12.94,0.32,25.91-0.25,38.84
		c-1.36-0.03-2.72-0.05-4.08-0.06c0.02-0.83,0.07-2.49,0.09-3.31c-1.8,1.96-3.99,3.94-6.85,3.84c-6,0.52-10.84-4.89-11.61-10.5
		c-0.8-5.66-0.42-12.49,4.21-16.51c4.07-3.51,10.63-2.94,14,1.28C119.47,298.35,119.54,293.78,119.52,289.22 M110.43,303.65
		c-3.23,1.39-4.56,5.08-4.73,8.35c-0.24,3.88-0.02,8.49,3.23,11.17c2.13,2.16,5.99,2.04,8.09-0.12c2.22-2.03,2.81-5.18,2.82-8.06
		c0.01-3.25-0.13-6.86-2.36-9.44C115.83,303.5,112.89,302.69,110.43,303.65z"/>
	<path fill="#232021" d="M171.44,293c1.47-0.96,2.95-1.92,4.43-2.86c-0.01,3.25-0.02,6.5-0.03,9.76c1.52-0.02,3.05-0.04,4.57-0.06
		c0.03,1.3,0.06,2.6,0.09,3.92c-1.55-0.03-3.11-0.05-4.66-0.06c0.1,6.1-0.18,12.2,0.13,18.29c0.24,2.47,2.87,1.65,4.56,1.86
		c0.14,1.44,0.29,2.89,0.43,4.35c-3.2,0.37-7.99,0.7-9.12-3.2c-0.9-7.04-0.16-14.21-0.39-21.3c-0.82,0.01-2.46,0.02-3.28,0.03
		c0.02-1.3,0.05-2.59,0.08-3.88c0.8,0.02,2.4,0.06,3.2,0.08C171.45,297.62,171.44,295.31,171.44,293z"/>
	<path fill="#232021" d="M76.85,301.83c3.12-2.5,7.38-2.69,11.2-2.39c3.28,0.22,6.87,2.14,7.46,5.65c1,7.64-0.76,15.51,1.39,23.02
		c-1.08,0.02-3.24,0.04-4.32,0.06c-0.37-1.15-0.72-2.29-1.07-3.43c-4.03,3.86-10.67,5.41-15.56,2.3
		c-4.73-3.21-3.96-11.25,1.19-13.64c4.53-2.02,9.69-1.61,14.38-3.16c-0.28-1.79-0.05-3.91-1.42-5.31c-2.1-2.03-5.35-1.85-8.01-1.36
		c-2.38,0.5-3.33,3.01-4.13,5.01c-1.49-0.18-2.98-0.36-4.47-0.53C74.23,305.81,74.89,303.33,76.85,301.83 M79.82,316.81
		c-2.95,1.43-2.86,6.03,0.07,7.45c3.34,1.36,7.67,0.47,9.9-2.49c1.7-2.16,1.45-5.09,1.69-7.67
		C87.66,315.32,83.6,315.52,79.82,316.81z"/>
	<path fill="#232021" d="M234.46,299.73c4.82-0.85,12.03-0.94,13.96,4.69c1.22,7.83-0.57,15.95,1.51,23.72
		c-1.08,0-3.23-0.01-4.3-0.01c-0.37-1.16-0.73-2.3-1.09-3.45c-3.93,4-10.67,5.44-15.53,2.35c-4.83-3.31-3.86-11.58,1.52-13.79
		c4.47-1.82,9.49-1.49,14.08-3c-0.29-2.06-0.03-4.62-2.07-5.86c-4.07-2.51-10.68-1.16-11.5,4.2c-1.51-0.18-3.02-0.36-4.53-0.53
		C227.35,304.03,230.21,300.36,234.46,299.73 M233.33,316.63c-3.23,1.09-3.5,5.96-0.51,7.52c3.72,1.76,8.85,0.28,10.75-3.48
		c1-2.03,0.73-4.38,1-6.56C240.88,315.23,237.02,315.56,233.33,316.63z"/>
	<path fill="#232021" d="M297.98,300.88c5.87-3.42,15.93-1.54,16.82,6.31c-1.44,0.19-2.87,0.39-4.29,0.59
		c-1.09-5.27-9.18-6.29-11.75-1.79c-0.32,1.38,0.35,2.77,1.6,3.43c4.11,1.89,8.87,2.18,12.72,4.67c3.87,3.02,3.08,9.52-0.68,12.3
		c-3.8,2.77-9.13,2.86-13.39,1.2c-3.28-1.36-4.69-4.85-5.58-8.02c1.5-0.2,3.02-0.38,4.54-0.55c0.64,5.08,6.7,7.18,10.85,4.8
		c2.06-0.98,2.85-4.1,1.22-5.78c-4.04-2.41-9.16-2.25-13.05-4.97C293.01,310.09,293.66,303.23,297.98,300.88z"/>
	<path fill="#232021" d="M321.59,304.91c3.55-6.5,13.7-7.6,18.56-2.02c3.17,3.27,3.73,8.06,3.55,12.41
		c-6.58-0.13-13.16-0.08-19.73-0.03c0.25,4.08,2.4,8.83,6.94,9.37c3.89,0.86,6.91-2.29,8.14-5.63c1.58,0.17,3.15,0.35,4.73,0.54
		c-1.07,2.74-2.32,5.66-4.95,7.27c-5.6,3.48-14.24,2.1-17.5-3.97C318.61,317.34,318.67,310.33,321.59,304.91 M324.12,311.26
		c5,0.01,9.99,0.03,14.99-0.01c-0.21-3.84-2.87-8.1-7.11-7.99C327.54,302.96,324.51,307.2,324.12,311.26z"/>
	<path fill="#232021" d="M357.46,299.51c2.13-0.69,4.2,0.43,6.12,1.22c-0.53,1.38-1.04,2.77-1.54,4.17
		c-2.56-0.82-6.03-1.14-7.25,1.89c-2.27,6.85-0.64,14.25-1.17,21.33c-1.46,0-2.92-0.01-4.37,0c-0.04-9.42-0.07-18.84,0.02-28.25
		c1.31,0,2.62,0.01,3.95,0.02c0,1.37,0.01,2.75,0.02,4.14C354.4,302.35,355.3,300.11,357.46,299.51z"/>
	<path fill="#232021" d="M459.18,301.04c3.87-2.38,9.04-2.23,13.05-0.25c2.54,1.14,3.28,4,4.15,6.38c-1.48,0.2-2.94,0.39-4.4,0.59
		c-1.05-4.58-6.93-5.8-10.44-3.38c-1.75,1.14-1.76,3.98,0.15,4.97c4.19,2.01,9.17,2.16,13.04,4.88c3.85,3.21,2.76,9.77-1.21,12.42
		c-3.79,2.55-8.98,2.57-13.11,0.89c-3.26-1.36-4.61-4.83-5.43-8c1.48-0.18,2.97-0.35,4.47-0.49c0.69,5.13,7.01,7.28,11.1,4.61
		c1.98-1.2,2.83-4.46,0.61-5.87c-4.11-2.12-9.12-2.13-12.94-4.89C454.63,309.82,455.21,303.54,459.18,301.04z"/>
	<path fill="#232021" d="M130.89,301.86c-0.57-2.81,2.96-1.81,4.53-2.05c0.14,6.68-0.2,13.36,0.17,20.03
		c0.14,2.72,2.7,4.94,5.42,4.72c3.36,0.02,6.5-2.79,6.64-6.2c0.45-6.14,0.07-12.32,0.19-18.48c1.5,0,3,0,4.51,0.01
		c0.04,9.41,0.03,18.82,0.01,28.23c-1,0-3.01,0-4.01,0c0-1.37-0.01-2.73,0-4.09c-3.41,6.11-14.12,6.39-16.67-0.52
		C130.13,316.42,131.19,309.06,130.89,301.86z"/>
	<path fill="#232021" d="M253.17,299.81c1.8,0.31,5.05-0.83,5.41,1.85c2.16,6.98,5.16,13.73,6.62,20.92
		c2.51-7.59,5.19-15.12,7.77-22.69c1.51-0.01,3.02-0.02,4.54-0.02c-3.66,10.34-7.26,20.71-10.95,31.03
		c-1.14,2.8-2.14,6.04-4.85,7.71c-1.79,1.22-4.04,0.68-6.04,0.61c-0.3-1.55-0.61-3.08-0.93-4.61c1.77-0.02,3.73,0.55,5.38-0.36
		c1.91-1.47,2.29-4.03,3.18-6.12C259.83,318.72,256.5,309.27,253.17,299.81z"/>
	<path fill="#232021" d="M363.51,299.88c1.57,0,3.14,0,4.71,0c2.6,7.46,5.1,14.95,7.59,22.44c2.15-7.63,4.74-15.16,7.67-22.53
		c1.08,0.03,3.26,0.09,4.34,0.12c-3.09,8.92-6.34,17.78-9.49,26.68c-0.42,2.2-3.09,1.34-4.66,1.62
		C370.23,318.78,366.81,309.35,363.51,299.88z"/>
	<path fill="#232021" d="M391.71,299.9c1.51-0.01,3.02-0.02,4.54-0.03c0.02,9.41,0.03,18.83,0.01,28.25c-1.52,0-3.04,0-4.55,0.01
		C391.7,318.72,391.71,309.31,391.71,299.9z"/>
	<path fill="#232021" d="M407.2,301.16c4.33-2.67,10.79-2.68,14.37,1.26c1.59,1.6,2.16,3.84,2.96,5.87
		c-1.5,0.21-2.99,0.41-4.47,0.61c-0.82-1.97-1.62-4.28-3.75-5.18c-3.55-1.52-7.93,0.68-9.04,4.32c-1.26,4.04-1.26,8.6,0.24,12.58
		c1.46,3.87,6.83,5.43,10.08,2.86c1.84-1.38,2.28-3.77,3.02-5.82c1.43,0.28,2.86,0.56,4.3,0.84c-0.77,2.47-1.48,5.14-3.4,7
		c-4.6,4.92-13.7,4-17.32-1.66c-2.43-3.78-2.79-8.53-2.29-12.89C402.4,307.22,403.8,303.18,407.2,301.16z"/>
	<path fill="#232021" d="M430.85,302.84c4.48-4.97,13.5-4.72,17.53,0.69c2.67,3.27,3.02,7.67,3.08,11.73
		c-6.63-0.06-13.26-0.02-19.89-0.03c0.22,4.53,3.21,9.99,8.44,9.47c3.51,0.2,5.33-3.1,6.91-5.65c1.52,0.08,3.05,0.32,4.57,0.53
		c-1.24,3.04-2.8,6.29-5.93,7.78c-4.72,2.22-11.05,1.75-14.79-2.13c-2.37-2.45-3.51-5.85-3.62-9.2
		C426.86,311.42,427.46,306.28,430.85,302.84 M431.85,311.25c4.99,0.03,9.98,0.02,14.97,0.01c-0.36-3.69-2.62-7.86-6.77-7.98
		C435.46,302.66,432.16,307.08,431.85,311.25z"/>
	<path fill="#232021" d="M337.77,346.39c1.69-0.07,3.39-0.29,4.97-0.96c0.06,2.1-0.15,4.19-0.37,6.29c-1.53-0.02-3.07-0.04-4.6-0.04
		C337.78,349.91,337.77,348.15,337.77,346.39z"/>
	<path fill="#232021" d="M284.09,346.27c1.47-0.02,2.94-0.02,4.42-0.02c0,1.82,0,3.65,0.01,5.48c-1.49-0.03-2.97-0.04-4.45-0.05
		C284.08,349.87,284.08,348.07,284.09,346.27z"/>
	<path fill="#232021" d="M324.46,349.93c1.47-0.91,2.94-1.84,4.41-2.76c-0.02,3.23-0.02,6.47-0.03,9.71c1.49-0.01,3-0.01,4.51-0.02
		c0.04,1.29,0.09,2.57,0.14,3.86c-1.56-0.01-3.11-0.02-4.66-0.03c0.13,6.11-0.19,12.24,0.14,18.34c0.18,2.39,2.98,1.57,4.56,1.88
		c0.14,1.45,0.27,2.9,0.4,4.36c-2.66,0.04-5.78,0.68-7.95-1.29c-1.59-1.54-1.45-3.91-1.55-5.93c-0.04-5.8,0.02-11.59,0-17.38
		c-0.82,0.02-2.46,0.05-3.28,0.07c0.01-1.3,0.04-2.59,0.07-3.88c0.8,0.02,2.4,0.06,3.2,0.08
		C324.43,354.6,324.43,352.26,324.46,349.93z"/>
	<path fill="#232021" d="M258.79,362.74c2.73-6.54,12.13-8.49,17.49-4.09c2.05,1.68,2.84,4.28,3.66,6.7
		c-1.47,0.18-2.93,0.38-4.39,0.57c-0.91-2.52-2.48-5.52-5.54-5.62c-3.62-0.55-6.87,2.39-7.61,5.78c-0.92,3.85-0.87,8.07,0.66,11.76
		c1.55,3.53,6.3,5.06,9.54,2.93c2.17-1.26,2.76-3.85,3.4-6.07c1.47,0.26,2.95,0.53,4.43,0.81c-0.89,2.8-1.83,5.84-4.25,7.74
		c-5.29,4.55-14.61,2.54-17.38-3.93C256.59,374.14,256.67,367.93,258.79,362.74z"/>
	<path fill="#232021" d="M297.84,358.88c3.12-2.56,7.42-2.74,11.26-2.42c3.26,0.24,6.91,2.12,7.44,5.65
		c0.89,7.65-0.71,15.51,1.38,23.03c-1.08,0-3.25,0-4.34,0c-0.37-1.14-0.73-2.28-1.08-3.41c-3.99,3.9-10.7,5.45-15.56,2.3
		c-4.83-3.32-3.84-11.57,1.54-13.8c4.48-1.77,9.47-1.51,14.06-2.97c-0.26-1.98-0.01-4.47-1.88-5.74
		c-4.07-2.68-10.84-1.37-11.69,4.08c-1.51-0.19-3.01-0.38-4.5-0.56C295.23,362.83,295.9,360.37,297.84,358.88 M302.04,373.38
		c-2.75,0.44-4.44,3.99-2.74,6.32c2.17,3.21,7.15,2.57,9.97,0.58c3.05-1.98,3.11-5.94,3.25-9.17
		C309.08,372.14,305.52,372.57,302.04,373.38z"/>
	<path fill="#232021" d="M356.51,356.73c3.6-0.87,7.65-0.41,10.67,1.86c3.6,2.57,5.07,7.17,5.16,11.44
		c0.06,3.93-0.43,8.2-2.99,11.37c-4.38,5.36-13.56,5.82-18.29,0.68c-3.86-4.35-4.1-10.75-3.02-16.19
		C348.87,361.56,352.17,357.79,356.51,356.73 M357.42,360.71c-5.2,2.06-5.73,8.58-5.04,13.37c0.32,3.87,3.43,7.86,7.6,7.63
		c4.13,0.11,7.14-3.93,7.46-7.75c0.45-4,0.4-8.72-2.7-11.71C362.89,360.3,359.89,359.77,357.42,360.71z"/>
	<path fill="#232021" d="M381.5,360.8c3.14-4.87,10.43-5.98,14.88-2.34c2.91,2.66,2.67,6.93,2.78,10.53
		c-0.2,5.41,0.37,10.87-0.37,16.25c-1.06-0.04-3.17-0.12-4.23-0.16c-0.1-6.37,0.09-12.75-0.09-19.12c0.1-2.58-1.71-5.22-4.4-5.45
		c-3.83-0.73-7.78,2.36-7.81,6.29c-0.28,5.98-0.15,11.97-0.05,17.96c-1.54,0.17-3.09,0.34-4.63,0.49
		c-0.02-9.46-0.04-18.92,0.01-28.38c0.99,0,2.99,0,3.98,0C381.55,358.18,381.53,359.48,381.5,360.8z"/>
	<path fill="#232021" d="M150.03,365.06c0.66-4.12,3.66-7.69,7.9-8.31c4.78-0.87,11.83-0.91,13.85,4.53
		c1.68,7.83-0.82,16.16,1.77,23.88c-1.53-0.03-3.05-0.04-4.57-0.05c-0.22-0.77-0.65-2.31-0.87-3.08c-4.32,3.2-10.38,5.2-15.36,2.24
		c-4.99-3.04-4.41-11.37,0.85-13.83c4.52-2.06,9.72-1.61,14.4-3.22c-0.38-1.85,0.07-4.26-1.65-5.54
		c-4.08-2.93-11.01-1.56-11.96,3.94C153.3,365.48,151.12,365.2,150.03,365.06 M157.03,373.53c-2.71,0.72-3.78,4.4-2.03,6.54
		c2.68,2.94,7.91,2.13,10.56-0.49c2.47-2.09,2.12-5.54,2.39-8.44C164.36,372.18,160.63,372.58,157.03,373.53z"/>
	<path fill="#232021" d="M181.21,358.22c5.83-3.88,16.42-2.07,17.39,5.98c-1.48,0.18-2.95,0.36-4.42,0.54
		c-0.91-4.76-7.19-5.74-10.61-3.18c-1.84,1.34-1.22,4.29,0.85,5.01c4.03,1.72,8.59,2.14,12.38,4.45c4.04,3.13,3.08,9.98-1.01,12.64
		c-3.9,2.55-9.2,2.67-13.37,0.74c-3.11-1.42-4.34-4.81-5.21-7.86c1.51-0.17,3.01-0.32,4.53-0.46c0.68,5.11,6.9,7.21,11,4.64
		c2.03-1.15,2.91-4.67,0.59-5.98c-3.97-2.03-8.74-2.06-12.49-4.58C177,367.35,177.33,360.86,181.21,358.22z"/>
	<path fill="#232021" d="M207.02,358c5.82-3.53,16.16-1.78,17.01,6.17c-1.06,0.16-3.17,0.48-4.22,0.64
		c-1.08-4.58-6.83-5.81-10.43-3.47c-1.79,1.07-1.78,4.06,0.09,5.01c4.04,1.91,8.73,2.19,12.56,4.57c4.04,2.71,3.49,9.17,0.02,12.13
		c-3.69,3.17-9.26,3.24-13.64,1.63c-3.38-1.33-4.87-4.88-5.64-8.17c1.5-0.16,2.99-0.31,4.5-0.44c0.57,5.03,6.47,7.01,10.59,4.9
		c2.15-1.11,3.47-4.4,1.2-6.08c-4.11-2.27-9.24-2.15-13.08-5C202.32,366.82,203.05,360.49,207.02,358z"/>
	<path fill="#232021" d="M235.39,357.49c5.86-2.85,13.92-0.51,16.48,5.73c2.08,5.32,2.08,11.78-0.64,16.88
		c-4.46,7.81-17.84,7.36-21.27-1.17C227.2,371.84,227.7,361.28,235.39,357.49 M238.48,360.65c-2.99,1.1-4.8,4.19-5.11,7.26
		c-0.41,3.89-0.46,8.39,2.29,11.51c2.49,2.88,7.43,3.13,10.07,0.33c3.3-3.33,3.19-8.56,2.51-12.88
		C247.49,362.53,242.89,358.92,238.48,360.65z"/>
	<path fill="#232021" d="M284.14,356.88c1.44-0.01,2.87-0.02,4.31-0.03c0.09,9.43,0.1,18.87,0,28.31c-1.44-0.02-2.88-0.03-4.32-0.04
		C284.1,375.71,284.06,366.3,284.14,356.88z"/>
	<path fill="#232021" d="M337.8,356.89c1.51-0.02,3.03-0.03,4.56-0.04c0.04,9.43,0.03,18.86,0,28.29c-1.52-0.02-3.04-0.03-4.56-0.03
		C337.78,375.7,337.79,366.3,337.8,356.89z"/>
</g>
<g id="_x23_a0015eff">
	<path fill="#A0015E" d="M393.22,114.27c1.66-4.4,6.39-6.56,10.71-7.44c7.05-1.36,15.52,0.04,19.97,6.2
		c5.26-7.09,15.56-8.03,23.38-5.24c3.97,1.39,7.79,4.69,7.86,9.2c-0.25,3.88-2.97,6.88-5.54,9.53c-8.55,8.93-18.52,16.61-25.68,26.8
		c-7.86-11.12-18.98-19.26-28-29.34C393.62,121.42,391.77,117.7,393.22,114.27z"/>
	<path fill="#A0015E" d="M72.73,203.06c28.4-0.4,56.81-0.05,85.22-0.17c101.03,0,202.05,0,303.08,0c5.53,0.06,11.07-0.15,16.6,0.17
		c-0.02,4.42,0,8.84-0.01,13.26c-134.96-0.06-269.92-0.01-404.88-0.03C72.76,211.88,72.78,207.47,72.73,203.06z"/>
</g>
</svg>
